<?xml version="1.0" encoding="utf-8"?>
<!-- Svg Vector Icons : http://www.onlinewebfonts.com/icon -->
<!DOCTYPE svg PUBLIC "-//W3C//DTD SVG 1.1//EN" "http://www.w3.org/Graphics/SVG/1.1/DTD/svg11.dtd">
<svg version="1.1" xmlns="http://www.w3.org/2000/svg" xmlns:xlink="http://www.w3.org/1999/xlink" x="0px" y="0px" viewBox="0 0 256 256" enable-background="new 0 0 256 256" xml:space="preserve">
<metadata> Svg Vector Icons : http://www.onlinewebfonts.com/icon </metadata>
<g><g><path fill="#ffffff" d="M148.3,186c-17.8,0-35.7,0.1-53.6,0c-16.1-0.1-18-1.9-21.6-18C65.6,133.5,57.6,99,50.6,64.4c-2-9.8-6.4-13.9-16.1-13.8c-4.8,0-9.8-0.8-14.5-2c-7-1.8-11.7-7.1-9.4-13.9C12.2,30.2,18,24.2,22.1,24c10.3-0.4,21.1,1,31,3.9c12.8,3.8,19.3,14.2,22.1,27c6.8,31.5,14.2,62.8,20.5,94.3c1.8,8.8,5.6,11.4,13.9,11.2c27-0.4,53.9-0.5,80.9-0.2c7.2,0.1,9.6-2.8,11-9.3c5.8-27,12.1-53.9,18.4-80.8c2.5-10.8,8.2-15.2,16.3-13.4c8.2,1.8,11.5,8.1,9.1,19c-7.1,32.4-14.6,64.8-21.8,97.3c-2,8.9-7.1,13.1-16.3,13C187.5,185.9,167.9,186,148.3,186z"/><path fill="#ffffff" d="M199.2,212.5c0,10.6-8.6,19.3-19.3,19.5c-11,0.2-20.3-8.9-20.2-19.7c0.1-11,9.4-19.8,20.4-19.5C190.7,193.1,199.3,202,199.2,212.5z"/><path fill="#ffffff" d="M114.6,192.8c11.2-0.1,20.2,8.7,20,19.7c-0.1,10.6-8.7,19.3-19.3,19.5c-11.1,0.2-20-8.7-19.9-19.8C95.6,201.4,103.9,192.9,114.6,192.8z"/></g></g>
</svg>