<?xml version="1.0" encoding="UTF-8"?>
<!DOCTYPE svg PUBLIC "-//W3C//DTD SVG 1.1//EN" "http://www.w3.org/Graphics/SVG/1.1/DTD/svg11.dtd">
<svg xmlns="http://www.w3.org/2000/svg" version="1.1" width="200px" height="200px" style="shape-rendering:geometricPrecision; text-rendering:geometricPrecision; image-rendering:optimizeQuality; fill-rule:evenodd; clip-rule:evenodd" xmlns:xlink="http://www.w3.org/1999/xlink">
<g><path style="opacity:0.87" fill="#ffffff" d="M 61.5,46.5 C 76.5747,44.0797 89.2414,48.4131 99.5,59.5C 109.755,48.2487 122.421,44.082 137.5,47C 158.182,54.1799 166.682,68.6799 163,90.5C 162.058,93.9927 160.725,97.326 159,100.5C 141.833,119 124,136.833 105.5,154C 100.713,154.879 96.0466,154.545 91.5,153C 75,136.5 58.5,120 42,103.5C 34.9607,91.8486 33.6274,79.5152 38,66.5C 42.9843,56.339 50.8177,49.6724 61.5,46.5 Z M 63.5,55.5 C 72.2889,54.1896 80.2889,56.023 87.5,61C 90.8412,65.194 94.8412,68.3607 99.5,70.5C 104.159,68.3607 108.159,65.194 111.5,61C 122.833,53.6667 134.167,53.6667 145.5,61C 153.552,68.4915 156.385,77.6582 154,88.5C 152.861,92.1122 151.194,95.4456 149,98.5C 133.5,114 118,129.5 102.5,145C 100.5,145.667 98.5,145.667 96.5,145C 81,129.5 65.5,114 50,98.5C 39.3686,79.2331 43.8686,64.8998 63.5,55.5 Z"/></g>
</svg>
